{"glyphs":{":":{"x_min":0,"x_max":263,"ha":263,"o":"m 182 394 q 182 380 180 371 q 179 362 174 357 q 169 352 161 349 q 153 347 140 347 q 127 347 120 349 q 112 352 107 357 q 102 362 100 371 q 99 380 99 394 q 99 408 100 417 q 102 426 107 431 q 112 437 120 439 q 127 441 140 441 q 153 441 161 439 q 169 437 174 431 q 179 426 180 417 q 182 408 182 394 z m 182 43 q 182 30 180 21 q 179 12 174 6 q 169 1 161 -1 q 153 -3 140 -3 q 127 -3 120 -1 q 112 1 107 6 q 102 12 100 21 q 99 30 99 43 q 99 57 100 66 q 102 76 107 81 q 112 86 120 88 q 127 90 140 90 q 153 90 161 88 q 169 86 174 81 q 179 76 180 66 q 182 57 182 43 z"},"$":{"x_min":0,"x_max":507,"ha":507,"o":""},"?":{"x_min":0,"x_max":463,"ha":463,"o":"m 415 484 q 415 440 402 406 q 389 373 366 349 q 344 326 312 313 q 280 300 242 299 l 239 168 q 239 162 233 159 q 227 156 212 156 q 205 156 199 156 q 194 157 191 159 q 188 161 186 163 q 185 166 185 168 l 182 315 q 182 324 184 330 q 187 335 191 339 q 195 343 201 344 q 207 346 215 346 l 228 346 q 263 346 288 357 q 312 368 327 386 q 342 404 348 429 q 355 453 355 480 q 355 510 347 535 q 338 561 322 579 q 305 597 279 607 q 253 617 218 617 q 188 617 166 611 q 143 604 126 596 q 110 588 99 581 q 89 575 84 575 q 81 575 78 576 q 75 577 73 580 q 72 583 71 589 q 70 594 70 601 q 70 610 71 615 q 72 620 77 625 q 82 629 96 637 q 111 645 131 652 q 151 659 175 663 q 199 668 224 668 q 273 668 309 654 q 345 640 368 615 q 392 590 403 556 q 415 523 415 484 z m 255 43 q 255 30 254 21 q 252 12 247 6 q 242 1 234 -1 q 226 -3 214 -3 q 201 -3 193 -1 q 185 1 180 6 q 175 12 174 21 q 172 30 172 43 q 172 57 174 66 q 175 76 180 81 q 185 86 193 88 q 201 90 214 90 q 226 90 234 88 q 242 86 247 81 q 252 76 254 66 q 255 57 255 43 z"},"<":{"x_min":0,"x_max":498,"ha":498,"o":"m 450 76 q 450 66 449 61 q 448 55 446 52 q 444 50 441 50 q 438 51 434 53 l 43 251 q 40 254 37 261 q 34 269 34 282 q 34 288 35 293 q 36 298 37 302 q 39 305 41 308 q 43 311 45 312 l 434 509 q 443 514 447 510 q 450 506 450 486 q 450 476 449 469 q 449 462 447 458 q 445 454 442 452 q 439 449 434 446 l 101 280 l 434 116 q 439 113 442 110 q 445 108 447 104 q 449 100 449 93 q 450 86 450 76 z"},"'":{"x_min":0,"x_max":214,"ha":214,"o":"m 130 438 q 130 435 129 433 q 128 430 125 429 q 122 427 118 426 q 113 425 107 425 q 100 425 96 426 q 91 427 89 429 q 86 430 85 433 q 83 435 83 438 l 72 669 q 72 672 74 674 q 77 677 81 678 q 85 680 92 681 q 98 682 107 682 q 116 682 123 681 q 129 680 134 678 q 138 677 139 674 q 141 672 141 669 z"},"=":{"x_min":0,"x_max":498,"ha":498,"o":"m 449 374 q 449 358 444 353 q 438 347 433 347 l 65 347 q 60 347 54 353 q 49 358 49 374 q 49 388 53 395 q 58 402 65 402 l 433 402 q 439 402 444 395 q 449 388 449 374 z m 449 188 q 449 173 444 167 q 438 161 433 161 l 65 161 q 60 161 54 167 q 49 173 49 188 q 49 203 53 209 q 58 216 65 216 l 433 216 q 439 216 444 209 q 449 203 449 188 z"},"a":{"x_min":0,"x_max":471,"ha":471,"o":"m 391 10 q 391 5 388 2 q 385 0 380 -2 q 375 -3 366 -3 q 357 -3 352 -2 q 346 0 343 2 q 339 5 339 10 l 339 59 q 310 27 274 9 q 238 -8 199 -8 q 165 -8 137 1 q 109 10 90 27 q 71 43 61 67 q 51 91 51 121 q 51 158 66 185 q 81 212 109 230 q 137 248 176 257 q 215 266 263 266 l 333 266 l 333 304 q 333 333 327 354 q 321 376 308 391 q 295 405 274 413 q 253 420 223 420 q 193 420 170 413 q 146 406 129 397 q 111 388 100 381 q 88 374 83 374 q 81 374 78 375 q 76 376 74 379 q 72 381 72 385 q 71 390 71 396 q 71 406 72 412 q 74 418 80 424 q 86 430 102 438 q 117 447 137 454 q 158 461 181 465 q 205 470 228 470 q 273 470 305 459 q 336 448 355 427 q 375 407 383 377 q 391 347 391 309 z m 333 218 l 252 218 q 217 218 191 212 q 165 206 147 193 q 129 181 121 164 q 112 147 112 125 q 112 87 136 64 q 161 42 205 42 q 239 42 269 59 q 299 77 333 114 z"},"L":{"x_min":0,"x_max":419,"ha":419,"o":"m 409 27 q 409 21 408 16 q 407 11 405 7 q 403 3 400 2 q 397 0 394 0 l 120 0 q 111 0 102 7 q 92 13 92 31 l 92 622 q 92 625 94 627 q 95 630 99 631 q 102 633 108 634 q 114 635 122 635 q 131 635 136 634 q 142 633 146 631 q 149 630 150 627 q 152 625 152 622 l 152 54 l 394 54 q 397 54 400 52 q 403 51 405 48 q 407 44 408 39 q 409 34 409 27 z"},"3":{"x_min":0,"x_max":507,"ha":507,"o":"m 437 178 q 437 137 423 103 q 410 69 383 44 q 357 19 317 5 q 278 -8 226 -8 q 195 -8 167 -3 q 140 2 119 10 q 98 17 83 25 q 69 33 66 36 q 62 39 61 42 q 59 44 58 48 q 57 52 56 57 q 55 63 55 71 q 55 85 58 91 q 62 96 67 96 q 71 96 85 88 q 98 80 119 70 q 141 60 169 52 q 197 43 231 43 q 266 43 292 53 q 319 62 337 79 q 355 96 364 119 q 373 142 373 169 q 373 199 361 222 q 350 246 328 263 q 306 280 274 290 q 242 299 203 299 l 140 299 q 137 299 134 300 q 131 302 128 305 q 125 308 124 313 q 122 318 122 325 q 122 332 124 336 q 125 341 127 344 q 130 347 133 349 q 136 350 140 350 l 195 350 q 229 350 257 359 q 285 369 304 386 q 324 403 334 427 q 345 452 345 481 q 345 503 338 523 q 331 542 317 557 q 303 572 281 580 q 260 588 232 588 q 202 588 178 580 q 153 571 135 560 q 116 550 104 541 q 92 532 87 532 q 84 532 82 533 q 79 534 77 537 q 76 540 75 545 q 74 550 74 559 q 74 564 75 568 q 75 572 77 576 q 78 579 80 582 q 82 585 86 590 q 91 594 104 603 q 118 612 138 620 q 158 628 183 634 q 208 640 237 640 q 281 640 313 628 q 345 617 366 596 q 387 576 397 548 q 407 520 407 487 q 407 457 399 430 q 391 404 375 384 q 360 364 337 350 q 314 336 285 332 l 285 331 q 318 328 345 315 q 373 302 393 282 q 414 262 425 236 q 437 209 437 178 z"},";":{"x_min":0,"x_max":263,"ha":263,"o":"m 182 394 q 182 380 180 371 q 179 362 174 357 q 169 352 161 349 q 153 347 140 347 q 127 347 120 349 q 112 352 107 357 q 102 362 100 371 q 99 380 99 394 q 99 408 100 417 q 102 426 107 431 q 112 437 120 439 q 127 441 140 441 q 153 441 161 439 q 169 437 174 431 q 179 426 180 417 q 182 408 182 394 z m 182 59 q 182 46 181 35 q 180 24 177 15 q 174 5 169 -5 q 164 -15 157 -25 l 89 -129 q 87 -132 84 -135 q 82 -137 78 -138 q 74 -140 69 -140 q 64 -141 57 -141 q 52 -141 48 -141 q 44 -140 42 -139 q 40 -137 40 -135 q 40 -133 42 -129 l 109 4 l 109 59 q 109 70 112 76 q 114 83 118 86 q 123 90 129 91 q 136 92 146 92 q 155 92 162 91 q 168 90 173 86 q 178 83 180 76 q 182 70 182 59 z"},"J":{"x_min":0,"x_max":312,"ha":312,"o":"m 222 150 q 222 115 216 86 q 209 57 194 36 q 179 15 154 3 q 129 -8 92 -8 q 79 -8 66 -6 q 54 -3 43 0 q 32 4 24 8 q 16 12 13 15 q 11 18 9 21 q 8 23 7 26 q 5 30 5 35 q 4 40 4 46 q 4 54 5 59 q 6 63 8 66 q 10 69 12 70 q 15 71 18 71 q 22 71 28 67 q 35 63 44 58 q 53 54 65 50 q 77 45 93 45 q 111 45 124 50 q 137 54 146 67 q 154 80 158 102 q 162 124 162 160 l 162 622 q 162 625 164 627 q 165 630 168 631 q 172 633 178 634 q 184 635 192 635 q 200 635 206 634 q 212 633 215 631 q 219 630 220 627 q 222 625 222 622 z"},"V":{"x_min":0,"x_max":554,"ha":554,"o":"m 315 11 q 313 7 311 4 q 308 1 303 0 q 298 -1 292 -2 q 285 -3 277 -3 q 271 -3 266 -3 q 261 -2 257 -2 q 253 -1 250 0 q 248 1 245 2 q 243 4 241 6 q 240 8 239 11 l 22 612 q 20 619 20 624 q 20 628 23 631 q 27 633 34 634 q 41 635 52 635 q 61 635 67 634 q 72 633 75 632 q 79 630 80 628 q 82 625 83 622 l 280 66 l 280 66 l 471 622 q 472 625 473 628 q 475 630 478 632 q 482 633 488 634 q 495 635 505 635 q 516 635 523 634 q 529 633 532 630 q 535 628 534 624 q 534 619 531 612 z"},"\"":{"x_min":0,"x_max":380,"ha":380,"o":"m 297 438 q 297 435 296 433 q 294 430 292 429 q 289 427 284 426 q 280 425 273 425 q 267 425 262 426 q 258 427 255 429 q 252 430 251 433 q 250 435 250 438 l 239 669 q 239 672 241 674 q 243 677 247 678 q 251 680 258 681 q 265 682 273 682 q 283 682 289 681 q 296 680 300 678 q 304 677 306 674 q 308 672 308 669 z m 130 438 q 130 435 129 433 q 128 430 125 429 q 122 427 118 426 q 113 425 107 425 q 100 425 96 426 q 91 427 89 429 q 86 430 85 433 q 83 435 83 438 l 72 669 q 72 672 74 674 q 77 677 81 678 q 85 680 92 681 q 98 682 107 682 q 126 682 134 678 q 141 675 141 669 z"},"7":{"x_min":0,"x_max":507,"ha":507,"o":"m 457 605 q 457 600 457 594 q 456 589 455 584 q 454 579 452 574 q 451 569 448 563 l 210 16 q 208 10 205 6 q 202 2 197 0 q 193 -1 187 -2 q 180 -3 171 -3 q 160 -3 154 -1 q 147 0 145 3 q 143 6 143 10 q 144 14 146 19 l 395 579 l 71 579 q 62 579 57 586 q 53 594 53 605 q 53 612 54 617 q 55 622 58 625 q 60 628 63 630 q 66 632 71 632 l 435 632 q 441 632 445 630 q 450 629 452 625 q 455 622 456 617 q 457 612 457 605 z"},"S":{"x_min":0,"x_max":453,"ha":453,"o":"m 412 171 q 412 129 397 96 q 382 62 354 39 q 327 16 290 4 q 252 -8 208 -8 q 177 -8 150 -3 q 124 3 103 11 q 82 19 67 27 q 53 35 47 40 q 42 46 40 53 q 37 61 37 72 q 37 81 38 86 q 39 91 41 95 q 42 98 45 99 q 48 101 51 101 q 58 101 70 92 q 83 83 102 73 q 122 63 150 55 q 177 46 214 46 q 244 46 269 54 q 293 62 312 78 q 330 93 340 115 q 350 137 350 166 q 350 195 337 216 q 324 237 303 253 q 283 269 256 281 q 230 294 202 307 q 175 320 148 335 q 122 351 101 371 q 81 391 68 418 q 55 446 55 483 q 55 520 68 549 q 82 578 105 598 q 129 619 163 629 q 196 640 236 640 q 256 640 277 636 q 297 632 316 626 q 334 620 348 613 q 363 605 367 600 q 372 596 373 594 q 375 591 375 588 q 376 584 377 580 q 377 575 377 568 q 377 562 377 557 q 376 552 375 548 q 373 544 371 542 q 369 541 366 541 q 360 541 349 548 q 338 555 322 563 q 305 572 282 579 q 259 586 230 586 q 201 586 180 579 q 158 571 144 557 q 130 544 123 526 q 116 508 116 488 q 116 458 128 438 q 141 417 162 400 q 183 384 210 371 q 236 358 264 345 q 292 333 318 318 q 345 303 366 282 q 387 262 399 235 q 412 208 412 171 z"},"}":{"x_min":0,"x_max":299,"ha":299,"o":"m 281 275 q 281 270 280 267 q 279 263 278 261 q 276 258 274 257 q 271 256 267 255 q 246 254 232 241 q 218 228 209 208 q 201 188 198 162 q 195 137 195 101 l 195 13 q 195 -36 191 -65 q 187 -94 176 -114 q 166 -133 147 -143 q 128 -153 100 -153 q 92 -153 88 -153 q 84 -153 75 -152 q 72 -152 70 -150 q 67 -149 65 -146 q 63 -144 62 -140 q 61 -136 61 -130 q 61 -125 62 -120 q 63 -116 65 -113 q 67 -110 70 -109 q 72 -108 75 -108 l 98 -108 q 109 -108 118 -104 q 126 -99 131 -86 q 137 -74 139 -51 q 142 -28 142 18 l 142 95 q 142 130 146 158 q 149 187 158 211 q 167 235 182 252 q 197 270 221 274 q 197 279 182 289 q 167 300 158 316 q 149 332 146 353 q 142 375 142 410 l 142 509 q 142 555 139 578 q 137 601 131 613 q 126 626 118 630 q 109 635 98 635 l 77 635 q 73 635 70 636 q 67 637 65 640 q 62 643 62 647 q 61 651 61 657 q 61 663 62 667 q 62 671 65 673 q 67 676 70 677 q 73 679 77 679 q 84 680 88 680 q 92 680 100 680 q 129 680 147 670 q 166 660 177 641 q 187 622 191 592 q 195 563 195 514 l 195 404 q 195 369 199 351 q 203 333 212 321 q 221 309 234 303 q 248 297 267 295 q 271 295 274 293 q 276 292 278 289 q 279 287 280 283 q 281 280 281 275 z"},"Z":{"x_min":0,"x_max":463,"ha":463,"o":"m 442 26 q 442 20 441 15 q 440 10 438 7 q 436 3 433 2 q 430 0 426 0 l 53 0 q 43 0 37 6 q 31 12 31 26 l 31 42 q 31 47 31 51 q 32 55 34 60 q 36 65 40 71 q 43 78 49 86 l 366 579 l 53 579 q 49 579 46 580 q 43 582 41 585 q 39 588 38 593 q 37 598 37 604 q 37 611 38 616 q 39 622 41 625 q 43 628 46 630 q 49 632 53 632 l 406 632 q 416 632 422 626 q 428 620 428 605 l 428 589 q 428 584 427 580 q 427 576 425 571 q 423 566 419 560 q 416 554 410 546 l 93 53 l 426 53 q 434 53 438 47 q 442 40 442 26 z"},"x":{"x_min":0,"x_max":418,"ha":418,"o":"m 390 19 q 394 13 394 9 q 395 5 391 2 q 388 0 381 -2 q 374 -3 363 -3 q 353 -3 346 -2 q 340 -1 337 0 q 333 1 331 4 q 329 6 327 9 l 208 194 l 89 9 q 87 6 85 4 q 83 1 79 0 q 75 -1 69 -2 q 62 -3 53 -3 q 42 -3 36 -2 q 29 0 26 2 q 22 5 23 9 q 23 13 27 19 l 173 233 l 34 443 q 30 449 30 453 q 30 457 33 460 q 37 462 44 463 q 52 464 62 464 q 73 464 79 464 q 85 463 88 461 q 92 460 94 458 q 96 456 98 453 l 210 280 l 325 453 q 327 456 329 458 q 331 460 334 461 q 337 463 343 464 q 349 464 358 464 q 369 464 376 463 q 383 462 386 460 q 390 458 389 453 q 389 449 385 443 l 245 235 z"},")":{"x_min":0,"x_max":299,"ha":299,"o":"m 226 262 q 226 207 219 152 q 212 98 198 45 q 184 -7 164 -58 q 144 -109 118 -158 q 116 -160 114 -162 q 111 -164 108 -165 q 104 -166 99 -166 q 95 -167 89 -167 q 80 -167 75 -166 q 70 -165 68 -162 q 66 -160 66 -157 q 67 -154 69 -149 q 116 -49 140 55 q 164 160 164 264 q 164 367 140 471 q 117 576 68 675 q 66 679 67 682 q 67 685 70 687 q 72 689 77 690 q 82 691 89 691 q 97 691 102 691 q 107 690 110 689 q 113 688 115 686 q 116 685 117 684 q 167 584 196 478 q 226 372 226 262 z"},"&":{"x_min":0,"x_max":670,"ha":670,"o":"m 60 161 q 60 188 66 212 q 73 236 89 260 q 104 283 130 305 q 156 327 194 350 q 173 378 159 401 q 145 423 135 442 q 126 461 123 479 q 119 496 119 513 q 119 542 128 568 q 137 594 158 615 q 179 635 212 648 q 246 660 293 660 q 332 660 360 651 q 389 642 408 625 q 427 608 437 585 q 446 562 446 534 q 446 506 437 482 q 428 458 408 436 q 387 414 354 391 q 321 368 273 341 q 292 319 313 294 q 334 270 358 245 q 381 221 406 197 q 430 172 455 150 q 466 166 476 185 q 485 204 492 225 q 499 246 502 269 q 506 291 506 314 l 506 333 q 506 337 507 340 q 508 343 511 345 q 514 347 520 348 q 525 349 534 349 q 542 349 547 348 q 553 348 556 347 q 560 345 562 342 q 564 338 564 332 l 564 322 q 564 293 559 265 q 554 237 545 210 q 536 184 522 160 q 509 136 493 116 q 518 96 536 82 q 555 69 568 61 q 581 52 589 49 q 598 45 603 45 q 608 45 612 46 q 616 46 619 45 q 622 44 623 40 q 625 36 625 26 q 625 17 624 11 q 624 5 623 2 q 622 0 620 -2 q 617 -4 611 -6 q 604 -7 591 -7 q 582 -7 570 -4 q 559 0 543 9 q 527 19 506 34 q 484 50 456 74 q 437 57 415 42 q 393 27 368 16 q 343 5 315 -1 q 287 -7 254 -7 q 224 -7 198 -2 q 172 3 150 14 q 128 24 112 39 q 95 54 83 72 q 72 91 66 113 q 60 136 60 161 z m 180 520 q 180 505 184 490 q 188 475 196 458 q 204 441 216 422 q 229 403 245 379 q 285 402 312 420 q 338 439 355 457 q 371 474 378 491 q 386 509 386 529 q 386 544 380 559 q 375 573 362 584 q 350 596 331 603 q 312 609 285 609 q 256 609 237 602 q 217 594 204 582 q 191 569 186 553 q 180 537 180 520 z m 122 170 q 122 143 131 120 q 140 97 158 80 q 176 63 202 54 q 229 44 264 44 q 287 44 308 49 q 330 54 349 63 q 369 71 386 83 q 403 95 417 108 q 390 132 364 158 q 337 184 312 210 q 287 236 264 262 q 241 288 222 312 q 193 294 174 277 q 155 260 143 242 q 132 225 127 207 q 122 189 122 170 z m 0 632 z"},"_":{"x_min":0,"x_max":498,"ha":498,"o":"m 500 -153 q 500 -166 496 -172 q 492 -178 485 -178 l 12 -178 q 5 -178 1 -172 q -3 -167 -3 -154 q -3 -141 1 -134 q 5 -127 12 -127 l 485 -127 q 492 -127 496 -134 q 500 -140 500 -153 z"},"v":{"x_min":0,"x_max":440,"ha":440,"o":"m 420 453 q 420 451 420 449 q 419 448 419 446 q 419 445 418 443 q 418 441 417 440 l 257 10 q 256 6 253 3 q 250 1 246 0 q 241 -2 235 -2 q 229 -3 221 -3 q 212 -3 206 -2 q 200 -1 195 0 q 191 1 188 4 q 185 6 184 10 l 23 440 q 22 444 21 446 q 21 449 20 450 q 20 452 20 453 q 20 456 21 458 q 23 461 26 462 q 29 463 35 464 q 40 464 48 464 q 59 464 65 464 q 71 463 75 461 q 79 460 80 458 q 82 455 83 452 l 222 66 l 223 63 l 224 66 l 359 452 q 360 455 362 458 q 364 460 368 461 q 372 463 378 464 q 384 464 394 464 q 401 464 406 464 q 412 463 415 462 q 417 460 419 458 q 420 456 420 453 z"},"O":{"x_min":0,"x_max":654,"ha":654,"o":"m 601 323 q 601 248 583 186 q 566 125 531 82 q 497 39 444 15 q 391 -8 321 -8 q 250 -8 200 14 q 149 36 117 77 q 84 119 69 178 q 54 238 54 312 q 54 387 71 447 q 88 508 123 551 q 158 593 210 617 q 263 640 333 640 q 402 640 453 618 q 503 596 536 555 q 569 514 585 456 q 601 397 601 323 z m 537 318 q 537 374 527 423 q 516 472 492 509 q 468 545 428 566 q 388 586 329 586 q 270 586 230 565 q 189 543 164 506 q 139 470 128 421 q 117 372 117 318 q 117 260 127 211 q 137 161 161 125 q 185 88 225 67 q 265 46 325 46 q 385 46 425 69 q 466 91 491 128 q 516 166 526 215 q 537 264 537 318 z"},"(":{"x_min":0,"x_max":299,"ha":299,"o":"m 231 675 q 182 576 158 471 q 135 367 135 264 q 135 160 159 56 q 183 -48 230 -149 q 232 -154 232 -157 q 232 -160 230 -162 q 228 -165 223 -166 q 218 -167 210 -167 q 204 -167 199 -166 q 195 -166 191 -165 q 188 -164 185 -162 q 183 -160 181 -158 q 155 -109 135 -58 q 114 -7 100 45 q 86 98 79 152 q 72 207 72 262 q 72 317 80 371 q 88 425 102 478 q 117 531 137 583 q 157 634 182 684 q 183 685 184 686 q 186 688 188 689 q 191 690 197 691 q 202 691 210 691 q 217 691 222 690 q 227 689 229 687 q 232 685 232 682 q 232 679 231 675 z"},"C":{"x_min":0,"x_max":535,"ha":535,"o":"m 506 86 q 506 81 505 76 q 505 72 504 68 q 503 65 501 62 q 500 59 495 54 q 490 50 475 39 q 459 29 435 19 q 412 8 381 1 q 350 -6 313 -6 q 253 -6 205 14 q 157 35 123 75 q 89 115 71 174 q 52 232 52 308 q 52 385 72 446 q 91 507 127 550 q 162 593 212 615 q 261 638 321 638 q 350 638 376 633 q 403 627 425 619 q 448 611 466 600 q 483 589 490 583 q 497 576 498 573 q 500 570 501 567 q 502 563 502 558 q 503 554 503 548 q 503 541 502 536 q 501 531 500 527 q 498 523 496 521 q 493 520 490 520 q 483 520 470 530 q 458 540 438 552 q 417 564 388 574 q 359 584 318 584 q 274 584 237 566 q 200 548 173 514 q 146 479 132 428 q 117 377 117 312 q 117 249 130 200 q 144 151 170 117 q 196 84 234 66 q 272 49 320 49 q 360 49 389 59 q 419 69 440 81 q 461 93 474 103 q 488 113 495 113 q 498 113 500 112 q 502 111 503 108 q 504 104 505 99 q 506 94 506 86 z"},"W":{"x_min":0,"x_max":881,"ha":881,"o":"m 665 11 q 663 7 660 4 q 657 1 652 0 q 646 -1 640 -2 q 633 -3 625 -3 q 616 -3 609 -2 q 602 -1 597 0 q 592 1 589 4 q 585 7 584 11 l 435 530 l 434 530 l 297 11 q 296 7 293 4 q 291 1 286 0 q 281 -1 275 -2 q 268 -3 259 -3 q 249 -3 242 -2 q 235 -1 229 0 q 224 1 221 4 q 218 7 216 11 l 37 612 q 35 620 35 624 q 35 628 38 631 q 41 633 48 634 q 54 635 65 635 q 76 635 82 634 q 88 633 92 632 q 95 630 96 628 q 98 625 99 622 l 257 68 l 258 68 l 404 622 q 405 625 406 628 q 408 630 411 632 q 415 633 422 634 q 428 635 439 635 q 447 635 452 634 q 458 633 461 632 q 464 630 466 628 q 467 625 468 622 l 627 68 l 628 68 l 783 622 q 784 625 785 628 q 787 630 790 632 q 793 633 799 634 q 805 635 815 635 q 826 635 833 634 q 839 633 842 630 q 845 628 845 624 q 846 619 844 612 z"},"A":{"x_min":0,"x_max":563,"ha":563,"o":"m 541 20 q 544 13 544 8 q 543 3 540 1 q 537 -1 531 -2 q 524 -3 514 -3 q 503 -3 497 -2 q 491 -1 488 0 q 484 1 483 4 q 481 6 479 10 l 419 178 l 142 178 l 83 11 q 83 7 81 5 q 79 2 75 1 q 72 -1 66 -2 q 60 -3 50 -3 q 40 -3 33 -2 q 26 -1 23 1 q 20 4 20 8 q 20 13 22 20 l 244 621 q 245 625 248 628 q 251 630 256 632 q 260 633 267 634 q 273 635 282 635 q 291 635 297 634 q 304 633 308 632 q 313 630 316 628 q 318 625 320 621 z m 279 568 l 278 568 l 159 228 l 401 228 z"},"f":{"x_min":0,"x_max":299,"ha":299,"o":"m 311 640 q 311 633 310 629 q 309 625 308 623 q 307 620 305 619 q 303 618 301 618 q 297 618 292 621 q 286 623 278 626 q 270 629 259 631 q 248 634 233 634 q 213 634 199 627 q 185 621 176 606 q 167 592 163 569 q 160 546 160 514 l 160 462 l 268 462 q 271 462 274 460 q 276 459 278 456 q 280 453 281 448 q 282 443 282 437 q 282 425 278 419 q 274 413 268 413 l 160 413 l 160 10 q 160 7 158 4 q 157 2 154 0 q 150 -1 145 -2 q 139 -3 130 -3 q 122 -3 116 -2 q 111 -1 107 0 q 104 2 103 4 q 102 7 102 10 l 102 413 l 35 413 q 28 413 25 419 q 21 425 21 437 q 21 443 22 448 q 23 453 25 456 q 26 459 29 460 q 32 462 35 462 l 102 462 l 102 512 q 102 559 110 591 q 118 624 135 645 q 152 665 177 674 q 203 684 236 684 q 253 684 269 680 q 284 677 292 674 q 300 670 303 667 q 306 665 307 661 q 309 657 310 652 q 311 646 311 640 z"},"Q":{"x_min":0,"x_max":666,"ha":666,"o":"m 688 -53 q 688 -61 687 -67 q 686 -72 683 -76 q 681 -79 679 -81 q 676 -82 673 -82 q 667 -82 648 -74 q 629 -66 602 -52 q 574 -37 542 -16 q 509 5 477 34 q 452 17 413 4 q 374 -8 321 -8 q 250 -8 200 14 q 149 36 117 77 q 84 119 69 178 q 54 238 54 312 q 54 387 71 447 q 88 508 123 551 q 158 593 210 617 q 263 640 333 640 q 400 640 450 618 q 500 596 533 555 q 567 514 584 456 q 601 397 601 323 q 601 286 596 250 q 592 214 582 182 q 573 150 558 122 q 543 94 522 71 q 561 40 589 22 q 618 4 637 -5 q 655 -14 665 -18 q 675 -22 680 -26 q 684 -31 686 -37 q 688 -43 688 -53 z m 537 318 q 537 374 527 423 q 516 472 492 509 q 468 545 428 566 q 388 586 329 586 q 270 586 230 565 q 189 543 164 506 q 139 470 128 421 q 117 372 117 318 q 117 260 127 211 q 137 161 161 125 q 185 88 225 67 q 265 46 325 46 q 385 46 425 69 q 466 91 491 128 q 516 166 526 215 q 537 264 537 318 z"},"w":{"x_min":0,"x_max":699,"ha":699,"o":"m 668 453 q 668 450 667 447 q 667 444 666 440 l 529 10 q 528 6 525 3 q 522 1 518 0 q 514 -2 507 -2 q 500 -3 490 -3 q 479 -3 472 -2 q 465 -1 460 0 q 456 1 453 4 q 450 6 449 10 l 347 358 l 346 362 l 345 358 l 249 10 q 248 6 245 3 q 242 1 237 0 q 232 -2 225 -2 q 217 -3 208 -3 q 198 -3 191 -2 q 185 -1 180 0 q 175 1 173 4 q 170 6 169 10 l 34 440 q 32 443 31 447 q 31 450 31 453 q 31 456 32 458 q 34 461 37 462 q 41 463 46 464 q 51 464 59 464 q 69 464 76 464 q 82 463 85 461 q 88 460 90 458 q 91 455 92 452 l 209 66 l 210 62 l 211 66 l 317 452 q 318 455 320 458 q 321 460 324 461 q 328 463 333 464 q 339 464 348 464 q 356 464 361 464 q 367 463 370 461 q 374 460 375 458 q 376 455 377 452 l 492 66 l 493 62 l 493 66 l 609 452 q 610 455 612 458 q 614 460 617 461 q 621 463 627 464 q 633 464 643 464 q 650 464 655 464 q 660 463 663 462 q 666 460 667 458 q 668 456 668 453 z"},"-":{"x_min":0,"x_max":306,"ha":306,"o":"m 270 247 q 270 233 266 228 q 262 223 255 223 l 51 223 q 44 223 40 228 q 36 233 36 247 q 36 261 40 266 q 44 271 51 271 l 255 271 q 258 271 261 270 q 264 269 266 266 q 268 263 269 259 q 270 254 270 247 z"},"E":{"x_min":0,"x_max":489,"ha":489,"o":"m 431 26 q 431 20 430 15 q 429 10 427 7 q 425 3 422 2 q 419 0 416 0 l 120 0 q 111 0 102 7 q 92 13 92 31 l 92 601 q 92 619 102 625 q 111 632 120 632 l 411 632 q 415 632 417 630 q 420 628 422 625 q 424 622 425 616 q 426 611 426 604 q 426 598 425 593 q 424 588 422 585 q 420 582 417 580 q 415 579 411 579 l 152 579 l 152 356 l 375 356 q 379 356 382 355 q 385 353 387 350 q 389 347 390 342 q 391 336 391 330 q 391 323 390 319 q 389 314 387 311 q 385 308 382 307 q 379 305 375 305 l 152 305 l 152 53 l 416 53 q 419 53 422 52 q 425 50 427 47 q 429 43 430 38 q 431 33 431 26 z"},"s":{"x_min":0,"x_max":387,"ha":387,"o":"m 341 127 q 341 96 330 71 q 318 45 296 28 q 274 10 244 1 q 214 -8 177 -8 q 154 -8 134 -5 q 113 -1 97 5 q 80 10 69 17 q 57 23 52 28 q 46 33 44 40 q 42 47 42 60 q 42 66 42 71 q 43 76 45 79 q 46 83 49 84 q 51 86 54 86 q 60 86 70 79 q 80 72 95 64 q 111 56 132 49 q 153 42 181 42 q 204 42 222 47 q 241 52 254 62 q 268 72 276 87 q 283 103 283 123 q 283 144 273 158 q 264 172 248 182 q 232 193 212 201 q 191 209 170 218 q 149 226 129 236 q 108 247 93 261 q 77 276 67 296 q 57 317 57 346 q 57 369 66 391 q 75 413 93 431 q 111 448 140 459 q 168 470 208 470 q 224 470 240 467 q 257 464 270 460 q 284 456 293 450 q 303 445 308 441 q 313 438 315 435 q 317 432 318 429 q 318 426 319 422 q 319 418 319 412 q 319 406 319 402 q 318 397 316 394 q 315 390 313 388 q 311 387 308 387 q 304 387 296 392 q 288 397 275 404 q 263 410 245 416 q 228 421 205 421 q 182 421 164 416 q 147 410 136 400 q 125 391 119 377 q 113 364 113 349 q 113 327 123 312 q 133 298 149 287 q 165 276 186 268 q 206 260 227 251 q 249 243 269 233 q 290 223 306 209 q 322 195 332 175 q 341 155 341 127 z"},">":{"x_min":0,"x_max":498,"ha":498,"o":"m 465 280 q 465 274 464 269 q 463 264 462 260 q 460 256 458 253 q 456 251 454 250 l 65 53 q 61 50 57 50 q 54 49 52 52 q 50 54 50 60 q 49 65 49 75 q 49 85 49 92 q 50 99 52 103 q 53 107 56 110 q 60 112 65 115 l 398 282 l 65 445 q 60 448 56 451 q 53 453 52 457 q 50 461 49 468 q 49 475 49 485 q 49 495 50 501 q 50 506 52 509 q 54 511 57 511 q 61 510 65 508 l 456 310 q 459 308 462 300 q 465 292 465 280 z"},"l":{"x_min":0,"x_max":221,"ha":221,"o":"m 140 10 q 140 7 138 4 q 137 2 134 0 q 130 -1 125 -2 q 119 -3 110 -3 q 102 -3 96 -2 q 91 -1 87 0 q 84 2 83 4 q 82 7 82 10 l 82 668 q 82 671 83 673 q 84 676 87 677 q 91 679 96 680 q 102 681 110 681 q 119 681 125 680 q 130 679 134 677 q 137 676 138 673 q 140 671 140 668 z"},"8":{"x_min":0,"x_max":507,"ha":507,"o":""},"\\":{"x_min":0,"x_max":362,"ha":362,"o":"m 360 -110 q 362 -116 362 -120 q 362 -124 359 -125 q 356 -127 350 -128 q 345 -128 336 -128 q 327 -128 322 -128 q 316 -127 312 -126 q 309 -125 307 -123 q 305 -121 303 -118 l 3 694 q 0 700 1 704 q 1 708 4 709 q 7 711 13 712 q 19 712 27 712 q 36 712 42 712 q 47 711 51 710 q 55 709 56 707 q 58 705 60 702 z"},"e":{"x_min":0,"x_max":494,"ha":494,"o":"m 442 253 q 442 236 433 229 q 423 223 415 223 l 113 223 q 113 182 121 148 q 129 115 148 92 q 167 68 196 55 q 226 42 270 42 q 300 42 325 48 q 349 53 367 60 q 385 66 396 72 q 408 77 413 77 q 416 77 418 76 q 420 74 422 71 q 423 68 424 63 q 425 58 425 51 q 425 47 424 44 q 424 41 423 38 q 422 36 421 33 q 419 31 417 28 q 415 26 402 20 q 389 14 369 8 q 348 1 321 -3 q 294 -8 263 -8 q 211 -8 172 7 q 132 22 105 52 q 79 83 65 127 q 51 171 51 230 q 51 286 65 331 q 80 375 106 406 q 133 437 171 453 q 209 470 255 470 q 305 470 340 453 q 375 437 398 408 q 421 380 431 343 q 442 306 442 265 z m 382 271 q 383 341 350 380 q 316 420 251 420 q 218 420 193 407 q 168 395 151 375 q 133 354 124 327 q 115 300 113 271 z"},"b":{"x_min":0,"x_max":520,"ha":520,"o":"m 467 236 q 467 180 455 135 q 443 89 419 58 q 395 26 359 9 q 324 -8 278 -8 q 257 -8 240 -4 q 223 0 206 9 q 189 19 172 33 q 155 47 135 67 l 135 10 q 135 6 133 4 q 132 1 128 0 q 125 -1 120 -2 q 115 -3 108 -3 q 101 -3 95 -2 q 90 -1 87 0 q 84 1 83 4 q 82 6 82 10 l 82 668 q 82 671 83 673 q 84 676 87 677 q 91 679 96 680 q 102 681 110 681 q 119 681 125 680 q 130 679 134 677 q 137 676 138 673 q 140 671 140 668 l 140 392 q 161 414 180 429 q 199 444 217 453 q 235 462 253 466 q 271 470 290 470 q 337 470 371 451 q 405 433 427 401 q 448 369 458 327 q 467 284 467 236 z m 406 227 q 406 264 400 299 q 395 333 380 360 q 366 387 343 404 q 319 420 284 420 q 267 420 250 415 q 233 410 216 399 q 198 388 179 370 q 161 352 140 326 l 140 133 q 176 89 210 65 q 244 42 281 42 q 314 42 338 58 q 362 74 377 101 q 393 127 399 160 q 406 193 406 227 z"},"%":{"x_min":0,"x_max":707,"ha":707,"o":""},"m":{"x_min":0,"x_max":791,"ha":791,"o":"m 711 10 q 711 7 710 4 q 708 2 705 0 q 702 -1 697 -2 q 691 -3 683 -3 q 674 -3 668 -2 q 663 -1 659 0 q 656 2 655 4 q 653 7 653 10 l 653 282 q 653 313 648 339 q 642 364 630 383 q 618 401 600 411 q 582 421 557 421 q 526 421 494 397 q 463 373 425 327 l 425 10 q 425 7 424 4 q 422 2 419 0 q 416 -1 410 -2 q 405 -3 396 -3 q 388 -3 383 -2 q 377 -1 374 0 q 370 2 369 4 q 368 7 368 10 l 368 282 q 368 313 362 339 q 356 364 344 383 q 332 401 314 411 q 295 421 271 421 q 240 421 208 397 q 177 373 140 327 l 140 10 q 140 7 138 4 q 137 2 134 0 q 130 -1 125 -2 q 119 -3 110 -3 q 102 -3 96 -2 q 91 -1 87 0 q 84 2 83 4 q 82 7 82 10 l 82 452 q 82 455 83 457 q 84 459 87 461 q 91 463 96 464 q 101 464 109 464 q 118 464 123 464 q 128 463 131 461 q 134 459 135 457 q 137 455 137 452 l 137 389 q 175 432 209 451 q 243 470 277 470 q 305 470 326 463 q 348 457 365 445 q 381 433 393 416 q 405 399 412 379 q 435 405 455 422 q 476 439 494 450 q 512 460 529 465 q 546 470 563 470 q 604 470 633 455 q 662 440 679 416 q 696 391 704 357 q 711 324 711 287 z"},"#":{"x_min":0,"x_max":498,"ha":498,"o":"m 478 433 q 478 426 477 422 q 476 417 474 414 q 472 411 469 409 q 466 408 462 408 l 395 408 l 373 233 l 435 233 q 441 233 446 227 q 450 221 450 208 q 450 202 448 197 q 447 192 445 189 q 443 186 441 185 q 438 183 435 183 l 366 183 l 344 8 q 344 5 343 3 q 342 1 339 0 q 336 -2 331 -2 q 325 -3 316 -3 q 307 -3 301 -2 q 294 -2 291 0 q 288 1 286 3 q 285 5 285 8 l 307 183 l 157 183 l 135 8 q 134 5 133 3 q 132 1 130 0 q 127 -2 122 -2 q 116 -3 107 -3 q 98 -3 92 -2 q 85 -2 82 0 q 79 1 77 3 q 76 5 76 8 l 98 183 l 35 183 q 28 183 24 189 q 20 195 20 208 q 20 214 21 219 q 22 224 24 227 q 26 230 29 232 q 32 233 35 233 l 105 233 l 127 408 l 62 408 q 56 408 51 414 q 47 420 47 433 q 47 445 51 452 q 56 458 62 458 l 133 458 l 155 623 q 155 626 156 628 q 158 630 161 632 q 165 633 170 634 q 176 635 186 635 q 195 635 200 634 q 206 633 209 632 q 212 630 213 628 q 214 626 214 623 l 192 458 l 342 458 l 363 623 q 363 626 365 628 q 366 630 369 632 q 373 633 378 634 q 384 635 394 635 q 403 635 409 634 q 415 633 417 632 q 420 630 421 628 q 422 626 422 623 l 401 458 l 462 458 q 469 458 474 452 q 478 445 478 433 z m 186 408 l 164 233 l 314 233 l 336 408 z"},",":{"x_min":0,"x_max":245,"ha":245,"o":"m 167 59 q 167 46 166 35 q 165 24 162 15 q 159 5 154 -5 q 149 -15 142 -25 l 74 -129 q 72 -132 70 -135 q 67 -137 63 -138 q 60 -140 55 -140 q 50 -141 42 -141 q 37 -141 33 -141 q 29 -140 28 -139 q 26 -137 26 -135 q 25 -133 27 -129 l 95 4 l 95 59 q 95 70 97 76 q 99 83 104 86 q 108 90 115 91 q 122 92 131 92 q 141 92 147 91 q 154 90 159 86 q 163 83 165 76 q 167 70 167 59 z"},"n":{"x_min":0,"x_max":520,"ha":520,"o":"m 440 10 q 440 7 438 4 q 437 2 434 0 q 431 -1 425 -2 q 419 -3 411 -3 q 402 -3 397 -2 q 391 -1 388 0 q 385 2 383 4 q 382 7 382 10 l 382 272 q 382 313 375 339 q 369 364 356 383 q 344 401 324 411 q 304 421 278 421 q 244 421 210 397 q 177 373 140 327 l 140 10 q 140 7 138 4 q 137 2 134 0 q 130 -1 125 -2 q 119 -3 110 -3 q 102 -3 96 -2 q 91 -1 87 0 q 84 2 83 4 q 82 7 82 10 l 82 452 q 82 455 83 457 q 84 459 87 461 q 91 463 96 464 q 101 464 109 464 q 118 464 123 464 q 128 463 131 461 q 134 459 135 457 q 137 455 137 452 l 137 389 q 175 432 211 451 q 248 470 284 470 q 328 470 357 455 q 387 440 406 416 q 424 391 432 357 q 440 324 440 277 z"},"h":{"x_min":0,"x_max":520,"ha":520,"o":"m 440 10 q 440 7 438 4 q 437 2 434 0 q 431 -1 425 -2 q 419 -3 411 -3 q 402 -3 397 -2 q 391 -1 388 0 q 385 2 383 4 q 382 7 382 10 l 382 272 q 382 313 375 339 q 369 364 356 383 q 344 401 324 411 q 304 421 278 421 q 244 421 210 397 q 177 373 140 327 l 140 10 q 140 7 138 4 q 137 2 134 0 q 130 -1 125 -2 q 119 -3 110 -3 q 102 -3 96 -2 q 91 -1 87 0 q 84 2 83 4 q 82 7 82 10 l 82 668 q 82 671 83 673 q 84 676 87 677 q 91 679 96 680 q 102 681 110 681 q 119 681 125 680 q 130 679 134 677 q 137 676 138 673 q 140 671 140 668 l 140 392 q 176 432 212 451 q 248 470 284 470 q 328 470 357 455 q 387 440 406 416 q 424 391 432 357 q 440 324 440 277 z"},"z":{"x_min":0,"x_max":394,"ha":394,"o":"m 349 25 q 349 19 347 14 q 346 9 344 6 q 342 3 339 1 q 336 0 333 0 l 70 0 q 61 0 55 6 q 49 12 49 25 l 49 39 q 49 44 50 49 q 51 53 53 58 q 55 63 58 69 q 61 74 66 82 l 276 411 l 70 411 q 63 411 59 417 q 54 423 54 437 q 54 443 55 448 q 57 453 59 456 q 61 459 63 460 q 66 462 70 462 l 314 462 q 318 462 322 460 q 326 459 329 456 q 332 453 333 448 q 335 443 335 437 l 335 425 q 335 420 334 416 q 333 411 332 406 q 330 400 326 394 q 323 388 318 380 l 108 51 l 333 51 q 336 51 339 49 q 342 48 344 45 q 346 42 347 37 q 349 32 349 25 z"},"B":{"x_min":0,"x_max":535,"ha":535,"o":"m 486 177 q 486 149 480 125 q 473 101 461 82 q 449 62 431 47 q 414 32 391 21 q 369 11 343 5 q 317 0 283 0 l 120 0 q 111 0 102 7 q 92 13 92 31 l 92 601 q 92 619 102 625 q 111 632 120 632 l 255 632 q 311 632 345 621 q 379 609 401 589 q 423 568 434 538 q 445 509 445 473 q 445 450 440 430 q 435 409 425 392 q 415 374 399 360 q 384 346 363 336 q 388 331 411 318 q 433 304 450 284 q 467 263 477 236 q 486 209 486 177 z m 382 469 q 382 494 375 514 q 368 534 353 549 q 338 563 314 571 q 291 579 250 579 l 152 579 l 152 352 l 260 352 q 296 352 318 362 q 340 371 354 387 q 368 403 375 425 q 382 446 382 469 z m 423 172 q 423 203 413 227 q 403 251 384 267 q 364 283 336 292 q 308 300 266 300 l 152 300 l 152 53 l 290 53 q 320 53 343 61 q 366 68 384 83 q 402 98 412 120 q 423 143 423 172 z"},"K":{"x_min":0,"x_max":504,"ha":504,"o":"m 477 11 q 477 7 476 5 q 475 2 472 1 q 468 -1 462 -2 q 457 -3 447 -3 q 438 -3 429 -2 q 420 -1 416 2 q 411 5 407 10 l 152 334 l 152 10 q 152 7 150 4 q 149 2 146 0 q 142 -1 136 -2 q 131 -3 122 -3 q 114 -3 108 -2 q 102 -1 99 0 q 95 2 94 4 q 92 7 92 10 l 92 622 q 92 625 94 627 q 95 630 99 631 q 102 633 108 634 q 114 635 122 635 q 131 635 136 634 q 142 633 146 631 q 149 630 150 627 q 152 625 152 622 l 152 335 l 396 622 q 399 625 403 628 q 406 630 411 632 q 415 633 421 634 q 427 635 436 635 q 444 635 450 634 q 455 633 458 631 q 461 629 462 627 q 463 625 463 622 q 463 617 461 612 q 458 607 452 600 l 222 337 l 467 29 q 474 20 476 17 q 477 13 477 11 z"},"R":{"x_min":0,"x_max":532,"ha":532,"o":"m 488 11 q 488 7 487 5 q 485 2 482 1 q 479 -1 472 -2 q 466 -3 457 -3 q 449 -3 443 -2 q 438 -1 434 1 q 430 3 427 7 q 425 10 423 16 l 364 169 q 354 195 342 218 q 330 241 313 258 q 297 275 273 285 q 250 294 217 294 l 152 294 l 152 10 q 152 7 150 4 q 149 2 146 0 q 142 -1 136 -2 q 131 -3 122 -3 q 114 -3 108 -2 q 102 -1 99 0 q 95 2 94 4 q 92 7 92 10 l 92 601 q 92 619 102 625 q 111 632 120 632 l 238 632 q 262 632 277 631 q 292 629 305 627 q 341 621 368 607 q 395 593 413 572 q 430 551 439 525 q 447 499 447 469 q 447 438 438 413 q 430 388 414 369 q 397 351 375 337 q 353 323 326 314 q 342 307 355 296 q 368 285 379 270 q 390 255 399 235 q 409 215 419 191 l 478 43 q 484 26 486 20 q 488 14 488 11 z m 383 462 q 383 503 365 531 q 347 559 304 571 q 290 575 273 577 q 257 579 230 579 l 152 579 l 152 347 l 243 347 q 279 347 306 356 q 332 365 349 380 q 367 396 375 417 q 383 438 383 462 z"},"T":{"x_min":0,"x_max":483,"ha":483,"o":"m 475 604 q 475 598 474 593 q 473 588 471 585 q 469 582 466 580 q 463 579 460 579 l 271 579 l 271 10 q 271 7 270 4 q 269 2 265 0 q 262 -1 256 -2 q 250 -3 242 -3 q 233 -3 228 -2 q 222 -1 218 0 q 215 2 213 4 q 212 7 212 10 l 212 579 l 23 579 q 20 579 17 580 q 14 582 12 585 q 10 588 9 593 q 8 598 8 604 q 8 611 9 616 q 10 622 12 625 q 14 628 17 630 q 20 632 23 632 l 460 632 q 463 632 466 630 q 469 628 471 625 q 473 622 474 616 q 475 611 475 604 z"},"P":{"x_min":0,"x_max":508,"ha":508,"o":"m 456 451 q 456 407 441 370 q 426 333 398 307 q 371 281 331 266 q 291 251 234 251 l 152 251 l 152 10 q 152 7 150 4 q 149 2 146 0 q 142 -1 136 -2 q 131 -3 122 -3 q 114 -3 108 -2 q 102 -1 99 0 q 95 2 94 4 q 92 7 92 10 l 92 601 q 92 619 102 625 q 111 632 120 632 l 248 632 q 267 632 285 630 q 303 628 327 623 q 352 617 377 602 q 402 586 419 564 q 437 542 447 513 q 456 485 456 451 z m 393 445 q 393 486 377 515 q 361 543 338 557 q 314 571 289 575 q 264 579 242 579 l 152 579 l 152 304 l 238 304 q 279 304 307 315 q 335 325 354 344 q 373 362 383 388 q 393 415 393 445 z"},"|":{"x_min":0,"x_max":453,"ha":453,"o":"m 253 -166 q 253 -168 252 -171 q 251 -173 248 -175 q 245 -177 239 -177 q 234 -178 226 -178 q 218 -178 213 -177 q 208 -177 205 -175 q 202 -173 200 -171 q 199 -168 199 -166 l 199 685 q 199 688 200 690 q 202 692 205 694 q 208 695 213 696 q 218 697 226 697 q 234 697 239 696 q 245 695 248 694 q 251 692 252 690 q 253 688 253 685 z"},"t":{"x_min":0,"x_max":329,"ha":329,"o":"m 294 36 q 294 26 293 20 q 291 13 287 10 q 284 6 277 3 q 270 0 260 -3 q 251 -5 241 -6 q 230 -7 221 -7 q 188 -7 165 1 q 142 10 127 28 q 113 46 106 73 q 100 101 100 138 l 100 413 l 34 413 q 27 413 23 419 q 19 425 19 437 q 19 443 20 448 q 21 453 23 456 q 25 459 28 460 q 30 462 34 462 l 100 462 l 100 570 q 100 573 101 576 q 102 578 105 580 q 109 582 115 582 q 120 583 128 583 q 137 583 143 582 q 148 582 152 580 q 155 578 156 576 q 158 573 158 570 l 158 462 l 280 462 q 283 462 286 460 q 289 459 291 456 q 292 453 293 448 q 294 443 294 437 q 294 425 290 419 q 286 413 280 413 l 158 413 l 158 146 q 158 95 172 69 q 187 42 225 42 q 236 42 246 45 q 255 47 263 50 q 270 53 275 56 q 280 58 284 58 q 287 58 289 57 q 291 56 292 53 q 293 51 294 47 q 294 42 294 36 z"},"M":{"x_min":0,"x_max":845,"ha":845,"o":"m 752 10 q 752 7 751 4 q 750 2 746 0 q 742 -1 737 -2 q 731 -3 722 -3 q 714 -3 708 -2 q 703 -1 699 0 q 696 2 694 4 q 693 7 693 10 l 693 580 l 692 580 l 443 6 q 442 4 440 3 q 438 1 435 0 q 432 -1 427 -2 q 422 -3 416 -3 q 409 -3 404 -2 q 399 -1 396 0 q 393 1 391 3 q 389 4 389 6 l 152 580 l 152 580 l 152 10 q 152 7 150 4 q 149 2 145 0 q 142 -1 136 -2 q 130 -3 121 -3 q 113 -3 107 -2 q 102 -1 98 0 q 95 2 94 4 q 92 7 92 10 l 92 601 q 92 619 102 625 q 111 632 120 632 l 152 632 q 164 632 173 629 q 183 626 190 621 q 197 616 202 609 q 207 602 210 592 l 419 90 l 421 90 l 639 590 q 644 602 649 610 q 655 618 661 623 q 667 628 674 630 q 681 632 689 632 l 725 632 q 729 632 734 630 q 739 629 743 625 q 747 622 750 616 q 752 610 752 601 z"},"g":{"x_min":0,"x_max":469,"ha":469,"o":"m 436 437 q 436 423 431 418 q 427 413 420 413 l 350 413 q 371 392 379 367 q 387 342 387 315 q 387 277 375 248 q 363 219 341 198 q 319 178 289 167 q 258 157 222 157 q 192 157 165 165 q 138 173 123 186 q 113 176 107 163 q 101 150 101 134 q 101 115 118 103 q 136 90 165 89 l 284 84 q 314 83 341 76 q 368 68 388 54 q 408 40 419 19 q 431 -2 431 -31 q 431 -60 419 -87 q 407 -114 382 -134 q 357 -154 318 -166 q 279 -178 225 -178 q 173 -178 136 -169 q 100 -160 77 -144 q 54 -128 43 -107 q 33 -85 33 -61 q 33 -43 37 -28 q 41 -13 49 0 q 57 14 69 27 q 81 40 96 53 q 71 65 60 83 q 48 102 48 122 q 48 152 60 176 q 71 199 88 217 q 74 236 66 258 q 58 280 58 311 q 58 348 70 377 q 83 407 104 427 q 126 448 156 459 q 187 470 223 470 q 242 470 259 468 q 275 465 290 462 l 420 462 q 428 462 432 456 q 436 449 436 437 z m 327 314 q 327 364 299 393 q 271 421 221 421 q 195 421 175 412 q 156 403 143 388 q 130 373 124 353 q 118 333 118 311 q 118 262 145 234 q 173 206 223 206 q 249 206 269 214 q 289 223 301 238 q 314 253 320 273 q 327 292 327 314 z m 373 -34 q 373 -2 347 15 q 321 32 277 34 l 148 38 q 131 24 120 12 q 108 0 102 -11 q 95 -23 93 -34 q 90 -45 90 -56 q 90 -92 127 -111 q 163 -129 228 -129 q 269 -129 297 -121 q 324 -113 341 -100 q 358 -87 366 -70 q 373 -53 373 -34 z"},"j":{"x_min":0,"x_max":230,"ha":230,"o":"m 148 -13 q 148 -60 142 -89 q 135 -118 121 -138 q 106 -158 83 -168 q 60 -178 26 -178 q 14 -178 4 -177 q -5 -175 -11 -173 q -16 -171 -18 -168 q -21 -166 -21 -162 q -22 -159 -22 -156 q -22 -153 -22 -149 q -22 -143 -22 -138 q -21 -134 -20 -131 q -18 -128 -16 -126 q -14 -125 -11 -125 q -8 -125 1 -126 q 10 -127 23 -127 q 42 -127 54 -122 q 67 -117 75 -104 q 83 -92 87 -72 q 90 -52 90 -13 l 90 452 q 90 455 92 457 q 93 459 96 461 q 100 463 105 464 q 111 464 120 464 q 128 464 134 464 q 139 463 142 461 q 146 459 147 457 q 148 455 148 452 z m 158 601 q 158 577 149 569 q 141 561 119 561 q 98 561 90 569 q 82 577 82 600 q 82 624 90 632 q 98 640 120 640 q 142 640 150 632 q 158 624 158 601 z"},"i":{"x_min":0,"x_max":221,"ha":221,"o":"m 140 10 q 140 7 138 4 q 137 2 134 0 q 130 -1 125 -2 q 119 -3 110 -3 q 102 -3 96 -2 q 91 -1 87 0 q 84 2 83 4 q 82 7 82 10 l 82 452 q 82 455 83 457 q 84 459 87 461 q 91 463 96 464 q 102 464 110 464 q 119 464 125 464 q 130 463 134 461 q 137 459 138 457 q 140 455 140 452 z m 148 601 q 148 577 140 569 q 132 561 110 561 q 88 561 80 569 q 72 577 72 600 q 72 624 81 632 q 89 640 111 640 q 132 640 140 632 q 148 624 148 601 z"},"y":{"x_min":0,"x_max":441,"ha":441,"o":"m 253 0 l 192 -166 q 189 -171 182 -175 q 174 -178 157 -178 q 148 -178 142 -177 q 136 -176 133 -174 q 130 -171 129 -167 q 129 -163 131 -157 l 194 0 q 190 1 187 5 q 184 8 183 12 l 22 443 q 20 450 20 454 q 20 458 23 460 q 25 463 31 464 q 38 464 48 464 q 59 464 65 464 q 71 463 75 461 q 79 460 80 458 q 82 455 83 452 l 222 66 l 224 66 l 359 452 q 362 458 366 461 q 370 463 377 464 q 384 464 394 464 q 403 464 409 463 q 415 462 418 460 q 421 458 421 453 q 421 449 418 443 z"},"@":{"x_min":0,"x_max":892,"ha":892,"o":"m 794 375 q 794 344 790 310 q 787 276 778 244 q 770 211 756 182 q 742 153 721 131 q 700 109 672 97 q 645 84 608 84 q 591 84 575 89 q 559 93 547 102 q 534 111 526 125 q 517 139 514 158 q 495 138 476 124 q 458 110 440 101 q 423 92 406 88 q 390 84 375 84 q 355 84 340 88 q 324 91 312 98 q 300 105 291 116 q 282 127 276 141 q 271 156 268 174 q 265 191 265 213 q 265 233 268 260 q 271 286 279 315 q 287 343 300 371 q 313 398 333 420 q 353 442 381 455 q 408 469 445 469 q 461 469 475 465 q 490 461 503 453 q 516 445 528 433 q 541 421 552 406 l 561 452 q 562 458 568 461 q 573 463 587 463 q 594 463 599 463 q 604 462 606 460 q 609 459 610 457 q 611 455 610 452 l 566 224 q 557 178 571 156 q 584 133 620 133 q 642 133 659 144 q 676 154 689 172 q 702 190 711 214 q 720 237 726 264 q 731 291 734 319 q 737 347 737 373 q 737 417 725 457 q 713 497 685 528 q 657 558 610 576 q 563 595 493 595 q 430 595 382 580 q 334 566 298 542 q 263 518 238 486 q 213 455 197 420 q 181 386 172 351 q 163 315 159 284 q 155 253 154 229 q 153 204 153 190 q 153 135 166 89 q 179 42 210 8 q 242 -27 296 -46 q 350 -66 432 -66 q 466 -66 494 -62 q 521 -58 542 -54 q 562 -49 574 -45 q 587 -42 591 -42 q 594 -42 596 -43 q 598 -44 599 -47 q 600 -50 601 -55 q 601 -59 601 -65 q 601 -69 601 -72 q 601 -75 600 -78 q 599 -81 598 -83 q 596 -86 593 -88 q 590 -90 577 -95 q 564 -100 542 -104 q 519 -109 489 -112 q 458 -116 422 -116 q 331 -116 269 -94 q 207 -72 168 -32 q 130 7 113 63 q 96 119 96 187 q 96 204 97 232 q 99 261 104 296 q 109 332 120 371 q 131 410 151 449 q 170 487 199 523 q 229 558 271 585 q 313 612 369 628 q 425 644 499 644 q 574 644 629 625 q 685 606 721 571 q 758 537 776 487 q 794 437 794 375 z m 535 350 q 515 384 493 402 q 472 420 444 420 q 421 420 403 409 q 385 398 372 381 q 358 364 349 342 q 340 320 334 297 q 328 274 326 253 q 323 231 323 215 q 323 176 338 155 q 352 134 386 134 q 398 134 412 138 q 425 143 440 152 q 456 162 473 177 q 490 192 510 213 z m 0 632 z"},".":{"x_min":0,"x_max":245,"ha":245,"o":"m 164 44 q 164 15 155 6 q 146 -3 122 -3 q 99 -3 90 6 q 81 15 81 43 q 81 72 90 81 q 99 90 123 90 q 146 90 155 81 q 164 72 164 44 z"},"p":{"x_min":0,"x_max":520,"ha":520,"o":"m 467 237 q 467 181 455 135 q 442 90 418 58 q 394 26 358 9 q 323 -8 277 -8 q 257 -8 240 -4 q 223 0 207 9 q 190 18 174 31 q 158 44 140 62 l 140 -166 q 140 -168 138 -171 q 137 -173 134 -175 q 130 -177 125 -177 q 119 -178 110 -178 q 102 -178 96 -177 q 91 -177 87 -175 q 84 -173 83 -171 q 82 -168 82 -166 l 82 452 q 82 455 83 458 q 84 460 87 461 q 90 463 95 464 q 101 464 108 464 q 115 464 120 464 q 125 463 128 461 q 132 460 133 458 q 135 455 135 452 l 135 388 q 155 409 174 424 q 192 439 211 450 q 229 460 249 465 q 269 470 291 470 q 338 470 372 451 q 406 433 427 401 q 448 370 458 327 q 467 285 467 237 z m 406 228 q 406 265 400 300 q 395 334 381 361 q 367 388 344 404 q 320 420 285 420 q 268 420 251 415 q 234 410 216 399 q 199 388 180 370 q 161 352 140 326 l 140 133 q 176 89 210 65 q 243 42 280 42 q 313 42 338 58 q 362 74 377 101 q 392 127 399 161 q 406 194 406 228 z"},"X":{"x_min":0,"x_max":501,"ha":501,"o":"m 469 20 q 473 13 474 9 q 474 4 471 2 q 467 -1 460 -2 q 453 -3 442 -3 q 431 -3 424 -2 q 418 -1 414 0 q 410 1 408 4 q 406 6 404 10 l 251 273 l 96 10 q 94 6 91 4 q 89 1 85 0 q 81 -1 75 -2 q 68 -3 58 -3 q 47 -3 40 -2 q 33 -1 30 2 q 27 4 28 9 q 28 13 33 20 l 216 319 l 39 612 q 35 619 34 623 q 33 627 36 630 q 39 633 46 634 q 52 635 63 635 q 74 635 81 634 q 87 633 92 632 q 96 630 98 628 q 100 625 103 622 l 252 371 l 402 622 q 404 625 406 628 q 408 630 411 632 q 415 633 420 634 q 426 635 437 635 q 447 635 454 634 q 461 633 464 630 q 468 627 468 623 q 467 619 463 612 l 286 321 z"},"*":{"x_min":0,"x_max":498,"ha":498,"o":"m 406 456 q 411 453 411 446 q 411 439 401 423 q 391 406 385 403 q 380 399 375 403 l 267 477 l 278 347 q 279 340 272 337 q 266 334 247 334 q 228 334 222 337 q 215 340 216 347 l 227 477 l 120 403 q 115 399 109 403 q 103 406 93 423 q 83 439 83 446 q 83 453 89 456 l 208 512 l 89 567 q 83 570 83 577 q 83 584 93 600 q 103 617 109 620 q 115 624 120 620 l 227 546 l 216 676 q 215 683 222 686 q 228 689 247 689 q 266 689 272 686 q 279 683 278 676 l 267 546 l 375 620 q 380 624 385 620 q 391 617 401 600 q 411 584 411 577 q 411 570 406 567 l 287 512 z"},"Y":{"x_min":0,"x_max":469,"ha":469,"o":"m 265 249 l 265 10 q 265 7 263 4 q 262 2 258 0 q 255 -1 249 -2 q 243 -3 235 -3 q 226 -3 220 -2 q 215 -1 211 0 q 208 2 206 4 q 205 7 205 10 l 205 249 l 23 612 q 20 619 19 624 q 19 628 21 630 q 24 633 30 634 q 37 635 46 635 q 57 635 64 634 q 70 633 74 632 q 79 630 81 628 q 83 625 84 622 l 181 425 q 195 397 208 368 q 222 338 235 308 l 236 308 q 249 336 262 366 q 275 395 289 424 l 387 622 q 388 625 390 628 q 392 630 396 632 q 399 633 405 634 q 410 635 418 635 q 430 635 438 634 q 445 633 448 630 q 451 627 450 623 q 450 619 446 612 z"},"c":{"x_min":0,"x_max":425,"ha":425,"o":"m 390 75 q 390 69 390 65 q 389 60 388 57 q 387 53 385 51 q 384 48 377 42 q 371 35 356 25 q 341 16 323 8 q 304 1 283 -4 q 261 -8 238 -8 q 192 -8 157 7 q 122 22 98 52 q 74 83 61 126 q 49 170 49 227 q 49 292 64 337 q 80 383 106 413 q 133 442 169 456 q 205 470 246 470 q 268 470 288 466 q 308 461 325 455 q 342 448 355 439 q 368 430 374 424 q 380 418 383 415 q 385 412 386 408 q 387 404 388 399 q 388 395 388 388 q 388 374 384 368 q 380 363 375 363 q 368 363 358 372 q 348 380 333 391 q 317 401 295 410 q 272 419 242 419 q 178 419 144 370 q 109 321 109 229 q 109 183 119 148 q 128 113 145 90 q 163 66 188 55 q 212 43 244 43 q 273 43 295 53 q 318 62 334 73 q 351 84 362 94 q 373 103 378 103 q 381 103 384 101 q 386 100 387 96 q 389 92 389 87 q 390 82 390 75 z"},"!":{"x_min":0,"x_max":326,"ha":326,"o":"m 208 168 q 208 166 206 163 q 205 161 202 159 q 199 157 194 156 q 188 156 181 156 q 174 156 169 156 q 164 157 160 159 q 157 161 156 163 q 155 166 155 168 l 148 646 q 148 652 150 656 q 151 661 155 663 q 158 666 165 667 q 171 668 181 668 q 191 668 197 667 q 204 666 207 663 q 211 660 212 656 q 214 652 214 646 z m 223 43 q 223 30 221 21 q 219 12 214 6 q 209 1 201 -1 q 193 -3 181 -3 q 168 -3 160 -1 q 152 1 148 6 q 143 12 141 21 q 140 30 140 43 q 140 57 141 66 q 143 76 148 81 q 152 86 160 88 q 168 90 181 90 q 193 90 201 88 q 209 86 214 81 q 219 76 221 66 q 223 57 223 43 z"},"/":{"x_min":0,"x_max":362,"ha":362,"o":"m 60 -113 q 58 -119 55 -123 q 52 -126 49 -128 q 45 -130 40 -131 q 35 -131 27 -131 q 20 -131 14 -130 q 9 -128 5 -126 q 2 -123 1 -119 q 0 -115 3 -109 l 301 695 q 303 701 305 705 q 308 708 311 710 q 315 712 320 713 q 326 713 333 713 q 340 713 346 712 q 351 710 354 708 q 357 705 358 701 q 359 697 357 691 z"},"[":{"x_min":0,"x_max":297,"ha":297,"o":"m 252 -130 q 252 -142 249 -147 q 246 -152 240 -152 l 129 -152 q 125 -152 120 -150 q 116 -149 112 -146 q 107 -142 105 -136 q 103 -130 103 -121 l 103 648 q 103 657 105 663 q 107 669 112 672 q 116 676 120 677 q 125 679 129 679 l 240 679 q 243 679 245 677 q 248 676 249 673 q 251 670 252 666 q 252 662 252 656 q 252 645 249 640 q 246 635 240 635 l 158 635 l 158 -108 l 240 -108 q 243 -108 245 -109 q 248 -110 249 -113 q 251 -116 252 -120 q 252 -125 252 -130 z"},"6":{"x_min":0,"x_max":507,"ha":507,"o":""},"r":{"x_min":0,"x_max":345,"ha":345,"o":"m 327 429 q 327 422 326 417 q 326 412 324 408 q 323 405 322 404 q 320 402 317 402 q 312 402 307 404 q 301 406 293 409 q 285 411 276 413 q 267 416 255 416 q 242 416 229 410 q 217 404 203 392 q 189 379 174 359 q 158 338 140 309 l 140 10 q 140 7 138 4 q 137 2 134 0 q 130 -1 125 -2 q 119 -3 110 -3 q 102 -3 96 -2 q 91 -1 87 0 q 84 2 83 4 q 82 7 82 10 l 82 452 q 82 455 83 457 q 84 459 87 461 q 91 463 96 464 q 101 464 109 464 q 118 464 123 464 q 128 463 131 461 q 134 459 135 457 q 137 455 137 452 l 137 382 q 156 410 172 427 q 188 444 203 453 q 217 463 231 466 q 245 470 260 470 q 266 470 274 469 q 283 468 292 466 q 302 464 309 462 q 317 459 320 457 q 323 455 324 453 q 325 451 325 448 q 326 446 326 441 q 327 437 327 429 z"},"2":{"x_min":0,"x_max":507,"ha":507,"o":"m 443 27 q 443 21 442 16 q 440 11 438 8 q 436 4 433 2 q 429 0 425 0 l 83 0 q 79 0 75 1 q 71 3 68 6 q 65 9 64 15 q 62 20 62 27 q 62 34 63 39 q 63 43 65 47 q 66 51 69 55 q 71 59 75 63 l 205 200 q 253 251 281 291 q 310 331 325 363 q 340 396 345 422 q 350 448 350 472 q 350 495 342 516 q 334 538 320 553 q 305 569 283 579 q 262 588 233 588 q 203 588 178 580 q 154 571 135 561 q 117 550 105 542 q 93 533 87 533 q 84 533 82 535 q 79 536 77 539 q 76 542 75 547 q 74 552 74 559 q 74 564 75 568 q 75 572 76 575 q 77 579 79 582 q 81 584 86 589 q 92 594 105 603 q 119 611 139 619 q 160 628 185 634 q 209 640 236 640 q 281 640 314 627 q 347 614 369 591 q 391 569 401 539 q 412 510 412 477 q 412 447 407 417 q 402 387 385 351 q 368 316 336 273 q 304 230 251 174 l 136 53 l 425 53 q 429 53 432 52 q 436 50 438 46 q 440 43 442 38 q 443 33 443 27 z"},"{":{"x_min":0,"x_max":299,"ha":299,"o":"m 270 -130 q 270 -136 269 -140 q 268 -144 266 -146 q 264 -149 261 -150 q 258 -152 255 -152 q 249 -153 244 -153 q 239 -153 232 -153 q 202 -153 184 -143 q 165 -133 155 -114 q 144 -95 140 -65 q 137 -36 137 13 l 137 123 q 137 158 133 179 q 128 201 120 217 q 111 233 97 243 q 83 253 64 254 q 60 255 57 256 q 55 258 53 260 q 52 263 51 266 q 51 270 51 274 q 51 279 51 283 q 52 287 53 289 q 55 292 57 293 q 60 294 64 294 q 102 298 119 331 q 137 363 137 426 l 137 514 q 137 562 141 592 q 145 621 155 641 q 166 660 185 670 q 203 680 232 680 q 239 680 243 680 q 247 680 254 679 q 258 679 261 677 q 264 676 266 673 q 268 671 269 667 q 270 663 270 657 q 270 651 269 647 q 268 643 266 640 q 264 637 261 636 q 258 635 254 635 l 233 635 q 222 635 213 630 q 205 626 200 613 q 194 601 192 578 q 189 555 189 509 l 189 432 q 189 396 186 372 q 182 347 173 327 q 165 307 149 293 q 134 279 110 274 q 134 270 149 256 q 165 242 173 222 q 182 202 186 177 q 189 152 189 117 l 189 18 q 189 -28 192 -51 q 194 -74 200 -86 q 205 -99 213 -104 q 222 -108 233 -108 l 255 -108 q 258 -108 261 -109 q 264 -110 266 -113 q 268 -116 269 -120 q 270 -125 270 -130 z"},"9":{"x_min":0,"x_max":507,"ha":507,"o":"m 449 338 q 449 296 444 254 q 438 212 426 173 q 414 135 394 102 q 374 68 344 44 q 315 20 275 6 q 235 -8 183 -8 q 162 -8 142 -6 q 123 -3 108 1 q 93 4 83 9 q 73 13 68 17 q 64 21 62 27 q 60 33 60 43 q 60 51 60 55 q 61 60 62 62 q 63 65 66 66 q 68 67 71 67 q 76 67 86 63 q 95 59 110 55 q 125 50 145 46 q 165 42 190 42 q 241 42 278 63 q 315 83 339 117 q 362 151 374 196 q 386 241 388 291 q 360 275 321 262 q 283 250 232 250 q 178 250 142 265 q 106 280 84 305 q 62 330 53 364 q 44 397 44 435 q 44 474 56 510 q 67 547 92 576 q 116 605 156 623 q 195 640 251 640 q 288 640 317 630 q 346 620 368 602 q 390 583 406 556 q 421 530 431 496 q 440 462 445 423 q 449 383 449 338 z m 387 343 q 387 411 377 458 q 368 505 349 535 q 331 564 304 577 q 277 590 243 590 q 206 590 180 577 q 155 563 138 542 q 122 520 115 493 q 107 466 107 440 q 107 409 114 383 q 121 357 136 338 q 152 320 177 309 q 203 299 240 299 q 281 299 320 311 q 359 323 387 343 z"}," ":{"x_min":0,"x_max":226,"ha":226,"o":""},"I":{"x_min":0,"x_max":244,"ha":244,"o":"m 152 10 q 152 7 150 4 q 149 2 146 0 q 142 -1 136 -2 q 131 -3 122 -3 q 114 -3 108 -2 q 102 -1 99 0 q 95 2 94 4 q 92 7 92 10 l 92 622 q 92 625 94 627 q 96 630 99 631 q 103 633 109 634 q 114 635 122 635 q 131 635 136 634 q 142 633 146 631 q 149 630 150 627 q 152 625 152 622 z"},"H":{"x_min":0,"x_max":619,"ha":619,"o":"m 527 10 q 527 7 525 4 q 524 2 521 0 q 517 -1 511 -2 q 505 -3 497 -3 q 488 -3 483 -2 q 477 -1 474 0 q 470 2 469 4 q 467 7 467 10 l 467 304 l 152 304 l 152 10 q 152 7 150 4 q 149 2 146 0 q 142 -1 136 -2 q 131 -3 122 -3 q 114 -3 108 -2 q 102 -1 99 0 q 95 2 94 4 q 92 7 92 10 l 92 622 q 92 625 94 627 q 95 630 99 631 q 102 633 108 634 q 114 635 122 635 q 131 635 136 634 q 142 633 146 631 q 149 630 150 627 q 152 625 152 622 l 152 357 l 467 357 l 467 622 q 467 625 469 627 q 470 630 474 631 q 477 633 483 634 q 488 635 497 635 q 505 635 511 634 q 517 633 521 631 q 524 630 525 627 q 527 625 527 622 z"},"4":{"x_min":0,"x_max":507,"ha":507,"o":"m 474 178 q 474 167 469 160 q 464 153 456 153 l 375 153 l 375 10 q 375 7 374 4 q 373 2 369 0 q 366 -1 360 -2 q 354 -3 346 -3 q 337 -3 332 -2 q 326 -1 323 0 q 319 2 318 4 q 317 7 317 10 l 317 153 l 45 153 q 41 153 38 154 q 34 155 31 158 q 29 161 28 166 q 26 171 26 178 q 26 185 27 189 q 27 194 29 199 q 30 203 32 207 q 34 211 37 216 l 282 621 q 284 625 288 627 q 292 630 297 632 q 303 633 311 634 q 318 635 329 635 q 340 635 349 634 q 357 633 363 631 q 369 629 372 626 q 375 624 375 620 l 375 204 l 456 204 q 464 204 469 197 q 474 191 474 178 z m 317 581 l 316 581 l 89 204 l 317 204 z"},"~":{"x_min":0,"x_max":498,"ha":498,"o":"m 469 497 q 467 467 457 444 q 446 421 429 406 q 412 390 391 382 q 369 374 347 374 q 322 374 305 380 q 287 386 274 395 q 260 405 250 417 q 240 429 231 440 q 223 452 214 462 q 206 472 197 480 q 187 488 176 492 q 164 497 149 497 q 130 497 117 489 q 104 481 96 469 q 88 456 84 439 q 81 422 81 405 q 81 396 74 394 q 67 392 55 392 q 48 392 43 393 q 38 394 35 395 q 33 396 32 399 q 31 401 31 404 l 31 417 q 31 447 40 471 q 48 495 64 511 q 81 527 103 536 q 125 544 153 544 q 177 544 195 538 q 212 533 226 523 q 239 514 250 502 q 260 491 268 479 q 277 468 285 458 q 293 447 302 439 q 312 432 323 427 q 335 422 350 422 q 369 422 382 429 q 395 437 403 449 q 411 462 415 479 q 419 496 419 515 q 419 522 425 524 q 431 527 443 527 q 451 527 456 526 q 460 525 464 524 q 467 522 468 520 q 469 518 469 514 z"},"D":{"x_min":0,"x_max":607,"ha":607,"o":"m 557 325 q 557 246 537 185 q 517 124 478 83 q 438 42 381 21 q 324 0 244 0 l 120 0 q 111 0 102 7 q 92 13 92 31 l 92 601 q 92 619 102 625 q 111 632 120 632 l 252 632 q 333 632 388 610 q 444 588 481 548 q 519 507 538 451 q 557 395 557 325 z m 493 322 q 493 377 479 425 q 465 472 436 506 q 407 540 362 559 q 318 579 249 579 l 152 579 l 152 53 l 250 53 q 314 53 359 69 q 403 85 433 118 q 463 151 478 202 q 493 252 493 322 z"},"^":{"x_min":0,"x_max":498,"ha":498,"o":"m 421 312 q 424 306 424 302 q 424 297 421 295 q 417 293 411 292 q 404 292 395 292 q 385 292 379 292 q 373 293 369 294 q 365 296 363 298 q 361 300 359 303 l 243 575 l 242 573 l 133 303 q 132 300 130 298 q 128 296 124 294 q 121 293 115 292 q 109 292 100 292 q 90 292 84 292 q 78 293 75 295 q 72 298 72 302 q 71 306 74 312 l 211 626 q 212 630 215 632 q 218 635 222 636 q 226 637 232 638 q 237 638 245 638 q 253 638 259 638 q 265 637 269 636 q 273 635 276 632 q 278 630 280 626 z"},"0":{"x_min":0,"x_max":507,"ha":507,"o":"m 468 317 q 468 246 457 186 q 446 126 420 83 q 394 40 351 16 q 309 -8 247 -8 q 190 -8 150 12 q 110 33 86 74 q 61 115 50 176 q 39 236 39 315 q 39 386 50 446 q 62 505 87 549 q 113 592 156 616 q 198 640 260 640 q 317 640 357 619 q 396 599 421 558 q 446 517 457 456 q 468 396 468 317 z m 406 312 q 406 360 402 399 q 398 438 391 469 q 383 500 371 523 q 359 545 342 560 q 325 575 304 582 q 282 589 255 589 q 207 589 177 567 q 147 544 130 506 q 113 469 107 420 q 102 372 102 320 q 102 248 110 196 q 118 143 136 109 q 154 75 183 59 q 211 42 251 42 q 284 42 308 53 q 332 63 349 82 q 366 100 377 125 q 388 151 395 181 q 401 210 403 244 q 406 277 406 312 z"},"F":{"x_min":0,"x_max":460,"ha":460,"o":"m 412 604 q 412 598 411 593 q 410 588 408 585 q 406 582 403 580 q 400 579 396 579 l 152 579 l 152 339 l 384 339 q 387 339 390 338 q 393 337 395 334 q 397 331 398 326 q 399 321 399 314 q 399 308 398 303 q 397 298 395 295 q 393 292 390 290 q 387 288 384 288 l 152 288 l 152 10 q 152 7 150 4 q 149 2 146 0 q 142 -1 136 -2 q 131 -3 122 -3 q 114 -3 108 -2 q 102 -1 99 0 q 95 2 94 4 q 92 7 92 10 l 92 601 q 92 619 102 625 q 111 632 120 632 l 396 632 q 400 632 403 630 q 406 628 408 625 q 410 622 411 616 q 412 611 412 604 z"},"`":{"x_min":0,"x_max":286,"ha":286,"o":"m 210 553 q 213 549 214 545 q 214 542 213 540 q 211 538 207 536 q 202 535 195 535 q 188 535 183 536 q 178 536 174 538 q 170 539 167 542 q 165 544 161 549 l 76 664 q 73 668 72 672 q 72 675 74 678 q 77 681 83 682 q 88 684 98 684 q 107 684 113 683 q 120 682 124 680 q 128 679 132 675 q 135 672 139 667 z"},"k":{"x_min":0,"x_max":441,"ha":441,"o":"m 418 11 q 418 7 417 5 q 416 2 412 1 q 409 -1 403 -2 q 397 -3 388 -3 q 378 -3 372 -2 q 365 -1 361 0 q 356 1 353 4 q 350 6 347 10 l 140 261 l 140 10 q 140 7 138 4 q 137 2 134 0 q 130 -1 125 -2 q 119 -3 110 -3 q 102 -3 96 -2 q 91 -1 87 0 q 84 2 83 4 q 82 7 82 10 l 82 668 q 82 671 83 673 q 84 676 87 677 q 91 679 96 680 q 102 681 110 681 q 119 681 125 680 q 130 679 134 677 q 137 676 138 673 q 140 671 140 668 l 140 262 l 326 450 q 330 454 334 457 q 338 459 343 461 q 348 463 354 464 q 360 464 369 464 q 377 464 383 464 q 389 463 393 462 q 397 460 399 458 q 401 456 401 453 q 401 448 398 443 q 395 438 388 431 l 211 264 l 407 30 q 414 22 416 19 q 418 15 418 11 z"},"u":{"x_min":0,"x_max":520,"ha":520,"o":"m 438 10 q 438 7 437 4 q 436 2 432 0 q 429 -1 423 -2 q 418 -3 410 -3 q 401 -3 396 -2 q 391 -1 388 0 q 385 2 384 4 q 382 7 382 10 l 382 72 q 344 30 308 11 q 271 -8 235 -8 q 192 -8 162 6 q 132 21 114 46 q 96 71 88 104 q 80 138 80 185 l 80 452 q 80 455 81 457 q 82 459 85 461 q 89 463 94 464 q 100 464 108 464 q 117 464 123 464 q 128 463 132 461 q 135 459 136 457 q 138 455 138 452 l 138 190 q 138 149 144 123 q 150 97 163 79 q 176 61 196 51 q 215 41 242 41 q 275 41 309 64 q 342 88 380 135 l 380 452 q 380 455 381 457 q 382 459 386 461 q 389 463 395 464 q 400 464 409 464 q 417 464 423 464 q 429 463 432 461 q 435 459 437 457 q 438 455 438 452 z"},"]":{"x_min":0,"x_max":297,"ha":297,"o":"m 195 -121 q 195 -130 192 -136 q 189 -142 186 -146 q 182 -149 177 -150 q 172 -152 167 -152 l 57 -152 q 51 -152 48 -147 q 44 -142 44 -130 q 44 -125 45 -120 q 46 -116 48 -113 q 49 -110 52 -109 q 54 -108 57 -108 l 140 -108 l 140 635 l 57 635 q 51 635 48 640 q 44 645 44 656 q 44 662 45 666 q 46 670 48 673 q 49 676 52 677 q 54 679 57 679 l 167 679 q 172 679 177 677 q 182 676 186 672 q 189 669 192 663 q 195 657 195 648 z"},"U":{"x_min":0,"x_max":636,"ha":636,"o":"m 545 232 q 545 175 529 130 q 512 85 482 54 q 452 23 409 8 q 366 -8 312 -8 q 264 -8 223 7 q 183 22 153 52 q 124 81 107 125 q 91 168 91 226 l 91 622 q 91 625 92 627 q 94 630 97 631 q 101 633 106 634 q 112 635 121 635 q 129 635 135 634 q 141 633 144 631 q 147 630 149 627 q 150 625 150 622 l 150 235 q 150 188 162 152 q 173 117 195 93 q 217 69 248 57 q 279 45 318 45 q 357 45 388 57 q 419 68 441 92 q 462 115 474 150 q 485 185 485 232 l 485 622 q 485 625 487 627 q 488 630 492 631 q 495 633 501 634 q 507 635 515 635 q 523 635 529 634 q 535 633 539 631 q 542 630 543 627 q 545 625 545 622 z"},"o":{"x_min":0,"x_max":521,"ha":521,"o":"m 473 235 q 473 183 459 138 q 445 94 418 61 q 391 28 351 10 q 310 -8 256 -8 q 205 -8 166 8 q 127 24 101 55 q 75 85 62 129 q 49 172 49 227 q 49 280 62 324 q 76 369 103 401 q 130 434 170 452 q 211 470 265 470 q 317 470 356 454 q 395 438 420 407 q 446 376 459 333 q 473 290 473 235 z m 411 230 q 411 268 404 302 q 396 336 379 362 q 362 388 333 404 q 305 419 262 419 q 222 419 193 405 q 165 391 146 365 q 128 340 119 306 q 110 272 110 232 q 110 194 118 160 q 125 125 142 100 q 159 74 188 59 q 217 43 260 43 q 299 43 328 58 q 357 72 375 97 q 394 122 402 156 q 411 190 411 230 z"},"N":{"x_min":0,"x_max":638,"ha":638,"o":"m 546 29 q 546 20 543 14 q 541 8 536 5 q 532 1 527 0 q 522 -2 518 -2 l 505 -2 q 496 -2 488 0 q 479 3 472 9 q 464 15 457 25 q 449 36 440 52 l 217 446 q 201 475 184 506 q 167 536 152 565 l 151 565 q 152 529 152 492 q 152 455 152 419 l 152 10 q 152 7 150 4 q 149 2 146 0 q 142 -1 136 -2 q 131 -3 122 -3 q 114 -3 108 -2 q 102 -1 99 0 q 95 2 94 4 q 92 7 92 10 l 92 601 q 92 619 102 625 q 111 632 120 632 l 144 632 q 156 632 164 630 q 171 628 178 623 q 184 619 190 610 q 196 602 204 588 l 374 286 q 390 258 405 232 q 419 206 433 180 q 446 155 460 131 q 473 106 486 82 l 487 82 q 486 123 486 167 q 486 211 486 252 l 486 620 q 486 623 488 625 q 489 628 493 630 q 496 631 502 632 q 507 633 516 633 q 524 633 530 632 q 536 631 539 630 q 542 628 544 625 q 546 623 546 620 z"},"+":{"x_min":0,"x_max":498,"ha":498,"o":"m 459 282 q 459 274 458 269 q 457 264 454 260 q 452 257 448 255 q 445 253 442 253 l 277 253 l 277 69 q 277 66 275 64 q 274 62 271 60 q 267 58 262 57 q 257 56 249 56 q 242 56 236 57 q 231 58 228 60 q 224 62 222 64 q 221 66 221 69 l 221 253 l 56 253 q 52 253 49 255 q 46 257 44 260 q 42 264 40 269 q 39 274 39 282 q 39 288 40 293 q 42 298 44 302 q 46 305 49 307 q 52 309 56 309 l 221 309 l 221 493 q 221 497 222 499 q 224 502 228 504 q 231 506 236 507 q 242 508 249 508 q 257 508 262 507 q 267 506 271 504 q 274 502 275 499 q 277 497 277 493 l 277 309 l 442 309 q 445 309 448 307 q 452 305 454 302 q 457 298 458 293 q 459 288 459 282 z"},"G":{"x_min":0,"x_max":627,"ha":627,"o":"m 549 552 q 549 546 548 541 q 547 535 546 531 q 544 528 541 526 q 539 524 536 524 q 530 524 516 534 q 503 543 480 555 q 458 566 426 576 q 394 586 350 586 q 294 586 250 565 q 206 544 176 508 q 146 472 130 423 q 114 373 114 316 q 114 252 132 202 q 150 152 182 117 q 214 83 258 65 q 302 47 354 47 q 388 47 423 55 q 458 63 488 81 l 488 285 l 327 285 q 319 285 315 292 q 311 299 311 312 q 311 318 312 323 q 313 329 315 332 q 317 335 320 337 q 323 338 327 338 l 520 338 q 524 338 529 337 q 534 335 538 332 q 542 329 545 323 q 547 316 547 308 l 547 73 q 547 61 544 53 q 540 44 527 37 q 514 29 492 20 q 470 11 446 5 q 423 -1 399 -4 q 375 -7 353 -7 q 281 -7 224 16 q 168 39 129 81 q 90 124 70 182 q 49 240 49 311 q 49 384 72 445 q 94 506 134 549 q 174 592 230 615 q 287 639 354 639 q 389 639 419 633 q 450 626 474 617 q 499 608 516 598 q 533 587 539 581 q 545 575 547 569 q 549 563 549 552 z"},"q":{"x_min":0,"x_max":520,"ha":520,"o":"m 438 -166 q 438 -168 437 -171 q 435 -173 432 -175 q 429 -177 423 -177 q 417 -178 409 -178 q 400 -178 395 -177 q 389 -177 386 -175 q 382 -173 381 -171 q 380 -168 380 -166 l 380 70 q 358 48 339 33 q 320 18 302 9 q 284 0 266 -4 q 249 -8 229 -8 q 182 -8 148 10 q 114 29 93 61 q 72 92 62 135 q 52 178 52 226 q 52 282 64 327 q 77 372 101 404 q 125 436 160 453 q 195 470 241 470 q 262 470 279 466 q 296 461 313 452 q 330 443 347 429 q 364 415 384 395 l 384 452 q 384 455 386 458 q 388 460 391 461 q 394 463 399 464 q 404 464 412 464 q 419 464 424 464 q 429 463 432 461 q 436 460 437 458 q 438 455 438 452 z m 380 329 q 343 373 309 396 q 275 420 238 420 q 205 420 181 404 q 157 388 142 361 q 126 335 120 302 q 113 269 113 234 q 113 197 119 163 q 125 128 139 101 q 153 74 176 58 q 200 42 235 42 q 252 42 269 46 q 286 51 303 62 q 321 74 340 92 q 358 109 380 136 z"},"d":{"x_min":0,"x_max":520,"ha":520,"o":"m 438 10 q 438 6 437 4 q 436 1 432 0 q 429 -1 424 -2 q 419 -3 412 -3 q 404 -3 399 -2 q 394 -1 391 0 q 388 1 386 4 q 384 6 384 10 l 384 73 q 349 35 312 13 q 274 -8 229 -8 q 182 -8 148 10 q 114 29 93 61 q 72 92 62 135 q 52 178 52 226 q 52 282 64 327 q 77 372 101 404 q 125 436 160 453 q 195 470 241 470 q 281 470 314 452 q 348 434 380 399 l 380 666 q 380 668 381 671 q 382 673 386 675 q 389 676 395 677 q 400 678 409 678 q 417 678 423 677 q 429 676 432 675 q 435 673 437 671 q 438 668 438 666 z m 380 329 q 343 373 309 396 q 275 420 238 420 q 205 420 181 404 q 157 388 142 361 q 126 335 120 302 q 113 269 113 234 q 113 198 119 163 q 125 128 139 101 q 153 74 176 58 q 200 42 235 42 q 252 42 269 46 q 286 51 303 62 q 321 74 340 92 q 358 109 380 136 z"},"1":{"x_min":0,"x_max":507,"ha":507,"o":"m 448 24 q 448 18 447 13 q 445 8 443 5 q 440 2 438 1 q 435 0 432 0 l 111 0 q 108 0 106 1 q 103 2 101 5 q 98 8 97 13 q 95 18 95 24 q 95 30 96 35 q 98 40 100 43 q 102 46 105 48 q 108 50 111 50 l 251 50 l 251 568 l 118 487 q 110 482 105 481 q 100 480 97 483 q 94 485 93 491 q 92 497 92 504 q 92 511 93 515 q 93 520 95 523 q 96 527 98 529 q 101 532 104 534 l 255 631 q 257 632 259 633 q 262 634 265 635 q 269 635 272 635 q 276 636 282 636 q 290 636 296 635 q 302 634 305 632 q 309 631 310 628 q 312 626 312 623 l 312 50 l 432 50 q 435 50 438 48 q 441 46 444 43 q 446 40 447 35 q 448 30 448 24 z"},"5":{"x_min":0,"x_max":507,"ha":507,"o":"m 441 202 q 441 151 424 112 q 408 73 377 46 q 347 20 305 6 q 263 -8 212 -8 q 183 -8 156 -4 q 130 1 109 7 q 89 13 76 19 q 63 25 60 29 q 56 32 55 34 q 54 36 53 39 q 52 42 51 47 q 51 52 51 58 q 51 64 52 69 q 52 74 54 77 q 56 81 58 82 q 61 84 63 84 q 68 84 79 78 q 89 71 107 64 q 125 56 152 50 q 179 43 215 43 q 250 43 280 52 q 310 61 332 79 q 354 98 366 126 q 378 155 378 195 q 378 229 368 255 q 357 281 335 298 q 313 315 280 323 q 246 332 201 332 q 170 332 150 328 q 129 325 111 325 q 99 325 93 331 q 87 337 87 355 l 87 603 q 87 617 94 624 q 102 632 115 632 l 384 632 q 388 632 391 630 q 395 628 397 625 q 399 622 401 617 q 402 612 402 605 q 402 594 397 586 q 393 579 384 579 l 142 579 l 142 378 q 159 381 177 381 q 196 382 222 382 q 277 382 319 368 q 360 355 387 331 q 414 307 427 274 q 441 241 441 202 z"}}}
